<svg width="40" height="41" viewBox="0 0 40 41" fill="none" xmlns="http://www.w3.org/2000/svg">
<path d="M9.33331 19.9092C8.9191 19.9092 8.58331 20.245 8.58331 20.6592C8.58331 21.0734 8.9191 21.4092 9.33331 21.4092V19.9092ZM30.6666 20.6592L31.197 21.1895C31.4899 20.8966 31.4899 20.4217 31.197 20.1288L30.6666 20.6592ZM23.197 12.1288C22.9041 11.836 22.4292 11.836 22.1363 12.1288C21.8434 12.4217 21.8434 12.8966 22.1363 13.1895L23.197 12.1288ZM22.1363 28.1288C21.8434 28.4217 21.8434 28.8966 22.1363 29.1895C22.4292 29.4824 22.9041 29.4824 23.197 29.1895L22.1363 28.1288ZM12.6666 21.4092C13.0809 21.4092 13.4166 21.0734 13.4166 20.6592C13.4166 20.245 13.0809 19.9092 12.6666 19.9092V21.4092ZM16.6666 19.9092C16.2524 19.9092 15.9166 20.245 15.9166 20.6592C15.9166 21.0734 16.2524 21.4092 16.6666 21.4092V19.9092ZM31.197 20.1288L23.197 12.1288L22.1363 13.1895L30.1363 21.1895L31.197 20.1288ZM30.1363 20.1288L22.1363 28.1288L23.197 29.1895L31.197 21.1895L30.1363 20.1288ZM9.33331 21.4092H12.6666V19.9092H9.33331V21.4092ZM16.6666 21.4092H30.6666V19.9092H16.6666V21.4092Z" fill="white"/>
</svg>
