<svg width="40" height="40" viewBox="0 0 40 40" fill="none" xmlns="http://www.w3.org/2000/svg">
<path d="M20.0002 22.2002L20.4882 22.7697C20.2074 23.0104 19.7931 23.0104 19.5122 22.7697L20.0002 22.2002ZM24.6472 17.2307C24.9618 16.9612 25.4352 16.9977 25.7048 17.3122C25.9743 17.6267 25.9378 18.1002 25.6232 18.3697L24.6472 17.2307ZM14.3772 18.3697C14.0627 18.1002 14.0262 17.6267 14.2957 17.3122C14.5652 16.9977 15.0387 16.9612 15.3532 17.2307L14.3772 18.3697ZM17.0649 18.6973C17.3794 18.9669 17.4159 19.4403 17.1464 19.7549C16.8769 20.0694 16.4034 20.1059 16.0889 19.8364L17.0649 18.6973ZM18.2285 21.6697C17.9139 21.4002 17.8774 20.9267 18.147 20.6122C18.4165 20.2977 18.8899 20.2612 19.2045 20.5307L18.2285 21.6697ZM19.5122 21.6307L24.6472 17.2307L25.6232 18.3697L20.4882 22.7697L19.5122 21.6307ZM15.3532 17.2307L17.0649 18.6973L16.0889 19.8364L14.3772 18.3697L15.3532 17.2307ZM19.2045 20.5307L20.4882 21.6307L19.5122 22.7697L18.2285 21.6697L19.2045 20.5307Z" fill="black"/>
</svg>
