<svg width="40" height="40" viewBox="0 0 40 40" fill="none" xmlns="http://www.w3.org/2000/svg">
<path d="M9.33334 19.25C8.91913 19.25 8.58334 19.5858 8.58334 20C8.58334 20.4142 8.91913 20.75 9.33334 20.75V19.25ZM30.6667 20L31.197 20.5303C31.4899 20.2374 31.4899 19.7626 31.197 19.4697L30.6667 20ZM23.197 11.4697C22.9041 11.1768 22.4292 11.1768 22.1363 11.4697C21.8435 11.7626 21.8435 12.2374 22.1363 12.5303L23.197 11.4697ZM22.1363 27.4697C21.8435 27.7626 21.8435 28.2374 22.1363 28.5303C22.4292 28.8232 22.9041 28.8232 23.197 28.5303L22.1363 27.4697ZM12.6667 20.75C13.0809 20.75 13.4167 20.4142 13.4167 20C13.4167 19.5858 13.0809 19.25 12.6667 19.25V20.75ZM16.6667 19.25C16.2525 19.25 15.9167 19.5858 15.9167 20C15.9167 20.4142 16.2525 20.75 16.6667 20.75V19.25ZM31.197 19.4697L23.197 11.4697L22.1363 12.5303L30.1363 20.5303L31.197 19.4697ZM30.1363 19.4697L22.1363 27.4697L23.197 28.5303L31.197 20.5303L30.1363 19.4697ZM9.33334 20.75H12.6667V19.25H9.33334V20.75ZM16.6667 20.75H30.6667V19.25H16.6667V20.75Z" fill="#919091"/>
</svg>
