<svg width="40" height="40" viewBox="0 0 40 40" fill="none" xmlns="http://www.w3.org/2000/svg">
<circle cx="23.0112" cy="18" r="1" fill="black"/>
<circle cx="17.0112" cy="18" r="1" fill="black"/>
<path d="M17.0112 13V12C17.0112 10.3431 18.3544 9 20.0112 9C21.6681 9 23.0112 10.3431 23.0112 12V13" stroke="black" stroke-width="1.5" stroke-linecap="round"/>
<path d="M28.235 20.5257C27.6497 17.4045 27.357 15.8439 26.2459 14.922C25.1348 14 23.5468 14 20.3707 14H19.6493C16.4732 14 14.8852 14 13.7741 14.922C12.663 15.8439 12.3703 17.4045 11.785 20.5257C10.9619 24.9146 10.5504 27.1091 11.7502 28.5545C12.9501 30 15.1832 30 19.6493 30H20.3707C24.8368 30 27.0699 30 28.2698 28.5545C28.9659 27.7159 29.1196 26.6252 28.9652 25" stroke="black" stroke-width="1.5" stroke-linecap="round"/>
</svg>
