<svg width="40" height="40" viewBox="0 0 40 40" fill="none" xmlns="http://www.w3.org/2000/svg">
<path d="M26.8806 28.4374C27.1408 28.76 27.613 28.811 27.9353 28.5512C28.2576 28.2915 28.308 27.8193 28.0479 27.4967L26.8806 28.4374ZM21.0183 19.9723L20.4368 19.4979C20.213 19.7725 20.212 20.1665 20.4347 20.4427L21.0183 19.9723ZM28.0824 12.4969C28.344 12.1761 28.2957 11.7036 27.9746 11.4416C27.6535 11.1796 27.181 11.2273 26.9194 11.5481L28.0824 12.4969ZM25.8993 24.8318C25.6391 24.5091 25.1669 24.4582 24.8446 24.7179C24.5223 24.9777 24.4718 25.4498 24.732 25.7725L25.8993 24.8318ZM22.0462 22.4413C22.3063 22.764 22.7785 22.815 23.1008 22.5552C23.4232 22.2954 23.4736 21.8233 23.2134 21.5007L22.0462 22.4413ZM21.5998 20.4467L28.0824 12.4969L26.9194 11.5481L20.4368 19.4979L21.5998 20.4467ZM28.0479 27.4967L25.8993 24.8318L24.732 25.7725L26.8806 28.4374L28.0479 27.4967ZM23.2134 21.5007L21.6019 19.502L20.4347 20.4427L22.0462 22.4413L23.2134 21.5007Z" fill="black"/>
<path d="M14.5826 11.5276C14.3217 11.2059 13.8494 11.1566 13.5276 11.4174C13.2059 11.6783 13.1566 12.1506 13.4174 12.4724L14.5826 11.5276ZM20.4643 19.9723L21.0469 20.4447C21.2701 20.1693 21.2701 19.7753 21.0469 19.4999L20.4643 19.9723ZM13.4174 27.4722C13.1566 27.794 13.2059 28.2663 13.5276 28.5271C13.8494 28.788 14.3217 28.7387 14.5826 28.4169L13.4174 27.4722ZM15.5722 15.1298C15.8331 15.4515 16.3054 15.5009 16.6271 15.24C16.9489 14.9791 16.9982 14.5068 16.7373 14.1851L15.5722 15.1298ZM19.4308 17.5069C19.1699 17.1851 18.6976 17.1358 18.3759 17.3967C18.0541 17.6575 18.0048 18.1298 18.2657 18.4516L19.4308 17.5069ZM19.8817 19.4999L13.4174 27.4722L14.5826 28.4169L21.0469 20.4447L19.8817 19.4999ZM13.4174 12.4724L15.5722 15.1298L16.7373 14.1851L14.5826 11.5276L13.4174 12.4724ZM18.2657 18.4516L19.8817 20.4447L21.0469 19.4999L19.4308 17.5069L18.2657 18.4516Z" fill="black"/>
</svg>
