<svg width="41" height="41" viewBox="0 0 41 41" fill="none" xmlns="http://www.w3.org/2000/svg">
<path d="M27.3806 28.9374C27.6408 29.26 28.113 29.311 28.4353 29.0512C28.7576 28.7915 28.808 28.3193 28.5479 27.9967L27.3806 28.9374ZM21.5183 20.4723L20.9368 19.9979C20.713 20.2725 20.712 20.6665 20.9347 20.9427L21.5183 20.4723ZM28.5824 12.9969C28.844 12.6761 28.7957 12.2036 28.4746 11.9416C28.1535 11.6796 27.681 11.7273 27.4194 12.0481L28.5824 12.9969ZM26.3993 25.3318C26.1391 25.0091 25.6669 24.9582 25.3446 25.2179C25.0223 25.4777 24.9718 25.9498 25.232 26.2725L26.3993 25.3318ZM22.5462 22.9413C22.8063 23.264 23.2785 23.315 23.6008 23.0552C23.9232 22.7954 23.9736 22.3233 23.7134 22.0007L22.5462 22.9413ZM22.0998 20.9467L28.5824 12.9969L27.4194 12.0481L20.9368 19.9979L22.0998 20.9467ZM28.5479 27.9967L26.3993 25.3318L25.232 26.2725L27.3806 28.9374L28.5479 27.9967ZM23.7134 22.0007L22.1019 20.002L20.9347 20.9427L22.5462 22.9413L23.7134 22.0007Z" fill="white"/>
<path d="M15.0826 12.0276C14.8217 11.7059 14.3494 11.6566 14.0276 11.9174C13.7059 12.1783 13.6566 12.6506 13.9174 12.9724L15.0826 12.0276ZM20.9643 20.4723L21.5469 20.9447C21.7701 20.6693 21.7701 20.2753 21.5469 19.9999L20.9643 20.4723ZM13.9174 27.9722C13.6566 28.294 13.7059 28.7663 14.0276 29.0271C14.3494 29.288 14.8217 29.2387 15.0826 28.9169L13.9174 27.9722ZM16.0722 15.6298C16.3331 15.9515 16.8054 16.0009 17.1271 15.74C17.4489 15.4791 17.4982 15.0068 17.2373 14.6851L16.0722 15.6298ZM19.9308 18.0069C19.6699 17.6851 19.1976 17.6358 18.8759 17.8967C18.5541 18.1575 18.5048 18.6298 18.7657 18.9516L19.9308 18.0069ZM20.3817 19.9999L13.9174 27.9722L15.0826 28.9169L21.5469 20.9447L20.3817 19.9999ZM13.9174 12.9724L16.0722 15.6298L17.2373 14.6851L15.0826 12.0276L13.9174 12.9724ZM18.7657 18.9516L20.3817 20.9447L21.5469 19.9999L19.9308 18.0069L18.7657 18.9516Z" fill="white"/>
</svg>
